<svg xmlns="http://www.w3.org/2000/svg" xmlns:xlink="http://www.w3.org/1999/xlink" width="500" zoomAndPan="magnify" viewBox="0 0 375 374.999991" height="500" preserveAspectRatio="xMidYMid meet" version="1.0"><defs><clipPath id="9af3a064a5"><path d="M 0.28125 0.28125 L 281.992188 0.28125 L 281.992188 154 L 0.28125 154 Z M 0.28125 0.28125 " clip-rule="nonzero"/></clipPath><clipPath id="f1f8e7324f"><path d="M 0.28125 63 L 240 63 L 240 90 L 0.28125 90 Z M 0.28125 63 " clip-rule="nonzero"/></clipPath><clipPath id="443f8e50eb"><path d="M 19 0.28125 L 209 0.28125 L 209 27 L 19 27 Z M 19 0.28125 " clip-rule="nonzero"/></clipPath><clipPath id="c99fb15f4f"><path d="M 252 63 L 281.992188 63 L 281.992188 90 L 252 90 Z M 252 63 " clip-rule="nonzero"/></clipPath><clipPath id="ec9bce3320"><path d="M 19 127 L 190 127 L 190 153.160156 L 19 153.160156 Z M 19 127 " clip-rule="nonzero"/></clipPath><clipPath id="2ce840951c"><rect x="0" width="282" y="0" height="154"/></clipPath><clipPath id="5b46ebd0d2"><path d="M 125 190 L 364.601562 190 L 364.601562 216 L 125 216 Z M 125 190 " clip-rule="nonzero"/></clipPath><clipPath id="5ddd7c935a"><path d="M 83.007812 190 L 113 190 L 113 216 L 83.007812 216 Z M 83.007812 190 " clip-rule="nonzero"/></clipPath><clipPath id="c83bfeadb0"><path d="M 175 253 L 346 253 L 346 279.398438 L 175 279.398438 Z M 175 253 " clip-rule="nonzero"/></clipPath><clipPath id="0d81e2dec0"><path d="M 88.015625 26.984375 L 212 26.984375 L 212 60.800781 L 88.015625 60.800781 Z M 88.015625 26.984375 " clip-rule="nonzero"/></clipPath><clipPath id="0eec9e11ce"><path d="M 170.253906 60.347656 L 294.257812 60.347656 L 294.257812 94.164062 L 170.253906 94.164062 Z M 170.253906 60.347656 " clip-rule="nonzero"/></clipPath><clipPath id="86f2ddde80"><path d="M 51 57.539062 L 174.882812 57.539062 L 174.882812 91.359375 L 51 91.359375 Z M 51 57.539062 " clip-rule="nonzero"/></clipPath><clipPath id="f08f57173a"><path d="M 95 91.191406 L 218.847656 91.191406 L 218.847656 125.011719 L 95 125.011719 Z M 95 91.191406 " clip-rule="nonzero"/></clipPath><clipPath id="eaf5309e58"><path d="M 73 95 L 103 95 L 103 122 L 73 122 Z M 73 95 " clip-rule="nonzero"/></clipPath><clipPath id="6592ee01e8"><path d="M 69.503906 102.03125 L 91.519531 89.269531 L 106.375 114.890625 L 84.359375 127.65625 Z M 69.503906 102.03125 " clip-rule="nonzero"/></clipPath><clipPath id="64477257a9"><path d="M 80.511719 95.648438 L 95.230469 95.671875 L 102.65625 108.480469 L 95.359375 121.265625 L 80.640625 121.242188 L 73.21875 108.433594 Z M 80.511719 95.648438 " clip-rule="nonzero"/></clipPath><clipPath id="59dcafacef"><path d="M 0 0.558594 L 29.761719 0.558594 L 29.761719 26.480469 L 0 26.480469 Z M 0 0.558594 " clip-rule="nonzero"/></clipPath><clipPath id="5caf4f1604"><path d="M -3.496094 7.03125 L 18.519531 -5.730469 L 33.375 19.890625 L 11.359375 32.65625 Z M -3.496094 7.03125 " clip-rule="nonzero"/></clipPath><clipPath id="3e0ba87e55"><path d="M 7.511719 0.648438 L 22.230469 0.671875 L 29.65625 13.480469 L 22.359375 26.265625 L 7.640625 26.242188 L 0.21875 13.433594 Z M 7.511719 0.648438 " clip-rule="nonzero"/></clipPath><clipPath id="f3cf89f088"><rect x="0" width="30" y="0" height="27"/></clipPath><clipPath id="1c3c810fc6"><path d="M 29 63 L 59 63 L 59 90 L 29 90 Z M 29 63 " clip-rule="nonzero"/></clipPath><clipPath id="95df63f077"><path d="M 25.519531 70.261719 L 47.464844 57.539062 L 62.273438 83.082031 L 40.328125 95.804688 Z M 25.519531 70.261719 " clip-rule="nonzero"/></clipPath><clipPath id="be82df961a"><path d="M 36.492188 63.898438 L 51.164062 63.921875 L 58.566406 76.691406 L 51.296875 89.433594 L 36.621094 89.414062 L 29.21875 76.644531 Z M 36.492188 63.898438 " clip-rule="nonzero"/></clipPath><clipPath id="509ecf89c1"><path d="M 0.078125 0.878906 L 29.601562 0.878906 L 29.601562 26.558594 L 0.078125 26.558594 Z M 0.078125 0.878906 " clip-rule="nonzero"/></clipPath><clipPath id="31a0587685"><path d="M -3.480469 7.261719 L 18.464844 -5.460938 L 33.273438 20.082031 L 11.328125 32.804688 Z M -3.480469 7.261719 " clip-rule="nonzero"/></clipPath><clipPath id="9e55f04937"><path d="M 7.492188 0.898438 L 22.164062 0.921875 L 29.566406 13.691406 L 22.296875 26.433594 L 7.621094 26.414062 L 0.21875 13.644531 Z M 7.492188 0.898438 " clip-rule="nonzero"/></clipPath><clipPath id="24e802e0ec"><rect x="0" width="30" y="0" height="27"/></clipPath><clipPath id="1aec25e062"><path d="M 68 33 L 97 33 L 97 59 L 68 59 Z M 68 33 " clip-rule="nonzero"/></clipPath><clipPath id="857015fe71"><path d="M 64.710938 39.40625 L 86.148438 26.980469 L 100.617188 51.933594 L 79.179688 64.363281 Z M 64.710938 39.40625 " clip-rule="nonzero"/></clipPath><clipPath id="e31e8dae36"><path d="M 75.429688 33.191406 L 89.765625 33.214844 L 96.996094 45.6875 L 89.894531 58.140625 L 75.558594 58.117188 L 68.328125 45.644531 Z M 75.429688 33.191406 " clip-rule="nonzero"/></clipPath><clipPath id="a5e348a47e"><path d="M 0.199219 0.160156 L 29 0.160156 L 29 25.359375 L 0.199219 25.359375 Z M 0.199219 0.160156 " clip-rule="nonzero"/></clipPath><clipPath id="d76832c6f3"><path d="M -3.289062 6.40625 L 18.148438 -6.019531 L 32.617188 18.933594 L 11.179688 31.363281 Z M -3.289062 6.40625 " clip-rule="nonzero"/></clipPath><clipPath id="ad4a1e7b36"><path d="M 7.429688 0.191406 L 21.765625 0.214844 L 28.996094 12.6875 L 21.894531 25.140625 L 7.558594 25.117188 L 0.328125 12.644531 Z M 7.429688 0.191406 " clip-rule="nonzero"/></clipPath><clipPath id="1048204cd5"><rect x="0" width="29" y="0" height="26"/></clipPath><clipPath id="490489973b"><path d="M 67 63 L 98 63 L 98 90 L 67 90 Z M 67 63 " clip-rule="nonzero"/></clipPath><clipPath id="a608d23ff7"><path d="M 64.289062 70.261719 L 86.230469 57.539062 L 101.039062 83.082031 L 79.097656 95.804688 Z M 64.289062 70.261719 " clip-rule="nonzero"/></clipPath><clipPath id="20a489d758"><path d="M 75.257812 63.898438 L 89.933594 63.921875 L 97.335938 76.691406 L 90.0625 89.433594 L 75.390625 89.414062 L 67.988281 76.644531 Z M 75.257812 63.898438 " clip-rule="nonzero"/></clipPath><clipPath id="f89203f26a"><path d="M 0.960938 0.878906 L 30.480469 0.878906 L 30.480469 26.558594 L 0.960938 26.558594 Z M 0.960938 0.878906 " clip-rule="nonzero"/></clipPath><clipPath id="cfd4b7ba1c"><path d="M -2.710938 7.261719 L 19.230469 -5.460938 L 34.039062 20.082031 L 12.097656 32.804688 Z M -2.710938 7.261719 " clip-rule="nonzero"/></clipPath><clipPath id="4227f38ca7"><path d="M 8.257812 0.898438 L 22.933594 0.921875 L 30.335938 13.691406 L 23.0625 26.433594 L 8.390625 26.414062 L 0.988281 13.644531 Z M 8.257812 0.898438 " clip-rule="nonzero"/></clipPath><clipPath id="17af966519"><rect x="0" width="31" y="0" height="27"/></clipPath><clipPath id="bc317c1939"><path d="M 50.878906 73.144531 L 76.109375 73.144531 L 76.109375 80.191406 L 50.878906 80.191406 Z M 50.878906 73.144531 " clip-rule="nonzero"/></clipPath><clipPath id="34f97ef01e"><path d="M 0.878906 0.144531 L 26.109375 0.144531 L 26.109375 7.191406 L 0.878906 7.191406 Z M 0.878906 0.144531 " clip-rule="nonzero"/></clipPath><clipPath id="3e65c37832"><rect x="0" width="27" y="0" height="8"/></clipPath><clipPath id="c59d8dcf37"><rect x="0" width="365" y="0" height="280"/></clipPath></defs><rect x="-37.5" width="450" fill="#ffffff" y="-37.499999" height="449.999989" fill-opacity="1"/><rect x="-37.5" width="450" fill="#000000" y="-37.499999" height="449.999989" fill-opacity="1"/><g transform="matrix(1, 0, 0, 1, 5, 41)"><g clip-path="url(#c59d8dcf37)"><g clip-path="url(#9af3a064a5)"><g transform="matrix(1, 0, 0, 1, 0.000000000000000888, 0)"><g clip-path="url(#2ce840951c)"><g clip-path="url(#f1f8e7324f)"><path fill="#11ebd8" d="M 1.648438 63.945312 L 135.789062 63.945312 L 141.515625 73.847656 L 154.777344 73.847656 L 160.507812 63.945312 C 165.445312 63.945312 227.335938 63.945312 232.273438 63.945312 L 239.683594 76.777344 L 232.273438 89.609375 C 227.335938 89.609375 165.445312 89.609375 160.507812 89.609375 L 154.777344 79.703125 L 141.515625 79.703125 L 135.789062 89.609375 L 1.648438 89.609375 C 0.171875 81.128906 0.171875 72.449219 1.648438 63.945312 Z M 1.648438 63.945312 " fill-opacity="1" fill-rule="nonzero"/></g><g clip-path="url(#443f8e50eb)"><path fill="#11ebd8" d="M 185.8125 26.523438 L 180.085938 16.621094 L 166.820312 16.621094 L 161.09375 26.523438 L 19.671875 26.523438 C 46.25 -3.441406 76.0625 0.835938 112.007812 0.835938 L 161.09375 0.835938 L 166.820312 10.738281 L 180.085938 10.738281 L 185.8125 0.835938 L 200.628906 0.835938 L 208.039062 13.667969 L 200.628906 26.496094 L 185.8125 26.496094 Z M 185.8125 26.523438 " fill-opacity="1" fill-rule="nonzero"/></g><path fill="#11ebd8" d="M 97.21875 42.308594 L 110.480469 42.308594 L 116.210938 32.402344 L 131.027344 32.402344 L 138.433594 45.234375 L 131.027344 58.066406 L 116.210938 58.066406 L 110.480469 48.164062 L 97.21875 48.164062 L 91.488281 58.066406 L 2.894531 58.066406 C 5.289062 48.695312 9.4375 40.015625 14.960938 32.378906 L 91.488281 32.378906 Z M 97.21875 42.308594 " fill-opacity="1" fill-rule="nonzero"/><g clip-path="url(#c99fb15f4f)"><path fill="#11ebd8" d="M 274.585938 63.945312 L 281.992188 76.777344 L 274.585938 89.632812 L 259.742188 89.632812 L 252.335938 76.777344 L 259.742188 63.945312 Z M 274.585938 63.945312 " fill-opacity="1" fill-rule="nonzero"/></g><path fill="#11ebd8" d="M 180.746094 45.234375 L 173.339844 58.066406 L 158.496094 58.066406 L 151.085938 45.234375 L 158.496094 32.402344 L 173.339844 32.402344 Z M 180.746094 45.234375 " fill-opacity="1" fill-rule="nonzero"/><path fill="#11ebd8" d="M 223.949219 127.03125 L 231.382812 139.886719 L 223.949219 152.71875 L 209.132812 152.71875 L 201.722656 139.886719 L 209.132812 127.03125 Z M 223.949219 127.03125 " fill-opacity="1" fill-rule="nonzero"/><path fill="#11ebd8" d="M 160.507812 105.390625 L 173.769531 105.390625 L 179.5 95.488281 L 194.316406 95.488281 L 201.722656 108.320312 L 194.316406 121.152344 L 179.5 121.152344 L 173.769531 111.246094 L 160.507812 111.246094 L 154.777344 121.152344 L 14.988281 121.152344 C 9.464844 113.511719 5.3125 104.832031 2.921875 95.464844 C 49.332031 95.464844 108.394531 95.464844 154.804688 95.464844 Z M 160.507812 105.390625 " fill-opacity="1" fill-rule="nonzero"/><g clip-path="url(#ec9bce3320)"><path fill="#11ebd8" d="M 122.523438 136.960938 L 135.789062 136.960938 L 141.515625 127.058594 C 154.878906 127.058594 168.273438 127.058594 181.664062 127.058594 L 189.070312 139.886719 L 181.664062 152.71875 C 168.273438 152.71875 154.90625 152.71875 141.515625 152.71875 L 135.789062 142.816406 L 122.523438 142.816406 L 116.796875 152.71875 C 78.835938 152.71875 46.9375 157.785156 19.671875 127.03125 L 116.796875 127.03125 Z M 122.523438 136.960938 " fill-opacity="1" fill-rule="nonzero"/></g></g></g></g><g clip-path="url(#5b46ebd0d2)"><path fill="#11ebd8" d="M 363.351562 190.148438 L 229.210938 190.148438 L 223.484375 200.050781 L 210.222656 200.050781 L 204.492188 190.148438 C 199.554688 190.148438 137.664062 190.148438 132.726562 190.148438 L 125.316406 202.980469 L 132.726562 215.808594 C 137.664062 215.808594 199.554688 215.808594 204.492188 215.808594 L 210.222656 205.90625 L 223.484375 205.90625 L 229.210938 215.808594 L 363.351562 215.808594 C 364.828125 207.332031 364.828125 198.652344 363.351562 190.148438 Z M 363.351562 190.148438 " fill-opacity="1" fill-rule="nonzero"/></g><path fill="#11ebd8" d="M 179.1875 152.722656 L 184.914062 142.820312 L 198.179688 142.820312 L 203.90625 152.722656 L 345.328125 152.722656 C 318.75 122.757812 288.9375 127.035156 252.992188 127.035156 L 203.90625 127.035156 L 198.179688 136.941406 L 184.914062 136.941406 L 179.1875 127.035156 L 164.371094 127.035156 L 156.960938 139.867188 L 164.371094 152.699219 L 179.1875 152.699219 Z M 179.1875 152.722656 " fill-opacity="1" fill-rule="nonzero"/><path fill="#11ebd8" d="M 267.78125 168.507812 L 254.519531 168.507812 L 248.789062 158.605469 L 233.972656 158.605469 L 226.566406 171.4375 L 233.972656 184.265625 L 248.789062 184.265625 L 254.519531 174.363281 L 267.78125 174.363281 L 273.511719 184.265625 L 362.105469 184.265625 C 359.710938 174.898438 355.5625 166.21875 350.039062 158.578125 L 273.511719 158.578125 Z M 267.78125 168.507812 " fill-opacity="1" fill-rule="nonzero"/><g clip-path="url(#5ddd7c935a)"><path fill="#11ebd8" d="M 90.414062 190.148438 L 83.007812 202.980469 L 90.414062 215.835938 L 105.257812 215.835938 L 112.664062 202.980469 L 105.257812 190.148438 Z M 90.414062 190.148438 " fill-opacity="1" fill-rule="nonzero"/></g><path fill="#11ebd8" d="M 184.253906 171.4375 L 191.660156 184.265625 L 206.503906 184.265625 L 213.914062 171.4375 L 206.503906 158.605469 L 191.660156 158.605469 Z M 184.253906 171.4375 " fill-opacity="1" fill-rule="nonzero"/><path fill="#11ebd8" d="M 141.050781 253.234375 L 133.617188 266.089844 L 141.050781 278.921875 L 155.867188 278.921875 L 163.277344 266.089844 L 155.867188 253.234375 Z M 141.050781 253.234375 " fill-opacity="1" fill-rule="nonzero"/><path fill="#11ebd8" d="M 204.492188 231.59375 L 191.230469 231.59375 L 185.5 221.691406 L 170.683594 221.691406 L 163.277344 234.519531 L 170.683594 247.351562 L 185.5 247.351562 L 191.230469 237.449219 L 204.492188 237.449219 L 210.222656 247.351562 L 350.011719 247.351562 C 355.535156 239.714844 359.6875 231.035156 362.078125 221.664062 C 315.667969 221.664062 256.605469 221.664062 210.195312 221.664062 Z M 204.492188 231.59375 " fill-opacity="1" fill-rule="nonzero"/><g clip-path="url(#c83bfeadb0)"><path fill="#11ebd8" d="M 242.476562 263.160156 L 229.210938 263.160156 L 223.484375 253.257812 C 210.117188 253.257812 196.726562 253.257812 183.335938 253.257812 L 175.929688 266.089844 L 183.335938 278.921875 C 196.726562 278.921875 210.09375 278.921875 223.484375 278.921875 L 229.210938 269.015625 L 242.476562 269.015625 L 248.203125 278.921875 C 286.164062 278.921875 318.0625 283.988281 345.328125 253.234375 L 248.203125 253.234375 Z M 242.476562 263.160156 " fill-opacity="1" fill-rule="nonzero"/></g><g clip-path="url(#0d81e2dec0)"><path fill="#000000" d="M 89.046875 28.730469 L 211.863281 26.984375 L 210.988281 60.414062 L 88.171875 60.800781 Z M 89.046875 28.730469 " fill-opacity="1" fill-rule="nonzero"/></g><g clip-path="url(#0eec9e11ce)"><path fill="#000000" d="M 171.285156 62.09375 L 294.101562 60.347656 L 293.226562 93.777344 L 170.410156 94.164062 Z M 171.285156 62.09375 " fill-opacity="1" fill-rule="nonzero"/></g><g clip-path="url(#86f2ddde80)"><path fill="#000000" d="M 51.910156 59.289062 L 174.726562 57.539062 L 173.851562 90.96875 L 51.035156 91.359375 Z M 51.910156 59.289062 " fill-opacity="1" fill-rule="nonzero"/></g><g clip-path="url(#f08f57173a)"><path fill="#000000" d="M 95.875 92.941406 L 218.691406 91.191406 L 217.816406 124.621094 L 95 125.011719 Z M 95.875 92.941406 " fill-opacity="1" fill-rule="nonzero"/></g><g clip-path="url(#eaf5309e58)"><g clip-path="url(#6592ee01e8)"><g clip-path="url(#64477257a9)"><g transform="matrix(1, 0, 0, 1, 73, 95)"><g clip-path="url(#f3cf89f088)"><g clip-path="url(#59dcafacef)"><g clip-path="url(#5caf4f1604)"><g clip-path="url(#3e0ba87e55)"><path fill="#11ebd8" d="M -3.496094 7.03125 L 18.519531 -5.730469 L 33.375 19.890625 L 11.359375 32.65625 Z M -3.496094 7.03125 " fill-opacity="1" fill-rule="nonzero"/></g></g></g></g></g></g></g></g><g clip-path="url(#1c3c810fc6)"><g clip-path="url(#95df63f077)"><g clip-path="url(#be82df961a)"><g transform="matrix(1, 0, 0, 1, 29, 63)"><g clip-path="url(#24e802e0ec)"><g clip-path="url(#509ecf89c1)"><g clip-path="url(#31a0587685)"><g clip-path="url(#9e55f04937)"><path fill="#11ebd8" d="M -3.480469 7.261719 L 18.464844 -5.460938 L 33.273438 20.082031 L 11.328125 32.804688 Z M -3.480469 7.261719 " fill-opacity="1" fill-rule="nonzero"/></g></g></g></g></g></g></g></g><g clip-path="url(#1aec25e062)"><g clip-path="url(#857015fe71)"><g clip-path="url(#e31e8dae36)"><g transform="matrix(1, 0, 0, 1, 68, 33)"><g clip-path="url(#1048204cd5)"><g clip-path="url(#a5e348a47e)"><g clip-path="url(#d76832c6f3)"><g clip-path="url(#ad4a1e7b36)"><path fill="#11ebd8" d="M -3.289062 6.40625 L 18.148438 -6.019531 L 32.617188 18.933594 L 11.179688 31.363281 Z M -3.289062 6.40625 " fill-opacity="1" fill-rule="nonzero"/></g></g></g></g></g></g></g></g><g clip-path="url(#490489973b)"><g clip-path="url(#a608d23ff7)"><g clip-path="url(#20a489d758)"><g transform="matrix(1, 0, 0, 1, 67, 63)"><g clip-path="url(#17af966519)"><g clip-path="url(#f89203f26a)"><g clip-path="url(#cfd4b7ba1c)"><g clip-path="url(#4227f38ca7)"><path fill="#11ebd8" d="M -2.710938 7.261719 L 19.230469 -5.460938 L 34.039062 20.082031 L 12.097656 32.804688 Z M -2.710938 7.261719 " fill-opacity="1" fill-rule="nonzero"/></g></g></g></g></g></g></g></g><g clip-path="url(#bc317c1939)"><g transform="matrix(1, 0, 0, 1, 50, 73)"><g clip-path="url(#3e65c37832)"><g clip-path="url(#34f97ef01e)"><path fill="#11ebd8" d="M 0.878906 0.144531 L 26.117188 0.144531 L 26.117188 7.191406 L 0.878906 7.191406 Z M 0.878906 0.144531 " fill-opacity="1" fill-rule="nonzero"/></g></g></g></g></g></g></svg>