<svg xmlns="http://www.w3.org/2000/svg" xmlns:xlink="http://www.w3.org/1999/xlink" width="1900" zoomAndPan="magnify" viewBox="0 0 1425 637.499986" height="850" preserveAspectRatio="xMidYMid meet" version="1.0"><defs><g/><clipPath id="3c7d11cbf4"><path d="M 0.558594 0 L 1424.441406 0 L 1424.441406 637 L 0.558594 637 Z M 0.558594 0 " clip-rule="nonzero"/></clipPath><clipPath id="48f2e17776"><path d="M 0.558594 0 L 1424.441406 0 L 1424.441406 637 L 0.558594 637 Z M 0.558594 0 " clip-rule="nonzero"/></clipPath><clipPath id="d7c6e7d6cb"><rect x="0" width="1425" y="0" height="637"/></clipPath><clipPath id="7c38c7c7f4"><path d="M 9.554688 21 L 603.089844 21 L 603.089844 344 L 9.554688 344 Z M 9.554688 21 " clip-rule="nonzero"/></clipPath><clipPath id="2cde4a7a62"><path d="M 41 0.101562 L 439 0.101562 L 439 56 L 41 56 Z M 41 0.101562 " clip-rule="nonzero"/></clipPath><clipPath id="b14a483273"><path d="M 531 134 L 594.089844 134 L 594.089844 189 L 531 189 Z M 531 134 " clip-rule="nonzero"/></clipPath><clipPath id="cfff3af654"><rect x="0" width="595" y="0" height="323"/></clipPath><clipPath id="76c96508f8"><path d="M 273 421 L 777.621094 421 L 777.621094 476 L 273 476 Z M 273 421 " clip-rule="nonzero"/></clipPath><clipPath id="83d1a0cd41"><path d="M 184.089844 421 L 247 421 L 247 476 L 184.089844 476 Z M 184.089844 421 " clip-rule="nonzero"/></clipPath><clipPath id="4818bc8945"><path d="M 194.644531 77.304688 L 454.691406 77.304688 L 454.691406 148.5 L 194.644531 148.5 Z M 194.644531 77.304688 " clip-rule="nonzero"/></clipPath><clipPath id="4f89347e2a"><path d="M 169.554688 152.894531 L 652.042969 152.894531 L 652.042969 285.621094 L 169.554688 285.621094 Z M 169.554688 152.894531 " clip-rule="nonzero"/></clipPath><clipPath id="c2370636ae"><path d="M 0.554688 0.894531 L 483.042969 0.894531 L 483.042969 133.621094 L 0.554688 133.621094 Z M 0.554688 0.894531 " clip-rule="nonzero"/></clipPath><clipPath id="3e5c124533"><rect x="0" width="484" y="0" height="134"/></clipPath><clipPath id="d6e1b64013"><path d="M 84.066406 150.261719 L 324.628906 150.261719 L 324.628906 216 L 84.066406 216 Z M 84.066406 150.261719 " clip-rule="nonzero"/></clipPath><clipPath id="e275e87e1c"><path d="M 139 221 L 202 221 L 202 276 L 139 276 Z M 139 221 " clip-rule="nonzero"/></clipPath><clipPath id="6f1970c568"><path d="M 132.148438 234.859375 L 178.53125 207.96875 L 209.832031 261.960938 L 163.449219 288.847656 Z M 132.148438 234.859375 " clip-rule="nonzero"/></clipPath><clipPath id="564f3deead"><path d="M 155.339844 221.414062 L 186.351562 221.460938 L 201.996094 248.445312 L 186.628906 275.382812 L 155.617188 275.335938 L 139.972656 248.351562 Z M 155.339844 221.414062 " clip-rule="nonzero"/></clipPath><clipPath id="edcedd3510"><path d="M 0.890625 0.347656 L 63 0.347656 L 63 54.542969 L 0.890625 54.542969 Z M 0.890625 0.347656 " clip-rule="nonzero"/></clipPath><clipPath id="a13be0ea7d"><path d="M -6.851562 13.859375 L 39.53125 -13.03125 L 70.832031 40.960938 L 24.449219 67.847656 Z M -6.851562 13.859375 " clip-rule="nonzero"/></clipPath><clipPath id="4ed10acb6d"><path d="M 16.339844 0.414062 L 47.351562 0.460938 L 62.996094 27.445312 L 47.628906 54.382812 L 16.617188 54.335938 L 0.972656 27.351562 Z M 16.339844 0.414062 " clip-rule="nonzero"/></clipPath><clipPath id="74721cf809"><rect x="0" width="63" y="0" height="55"/></clipPath><clipPath id="7ce5cd4908"><rect x="0" width="824" y="0" height="182"/></clipPath><clipPath id="0612541b59"><path d="M 47 155 L 110 155 L 110 209 L 47 209 Z M 47 155 " clip-rule="nonzero"/></clipPath><clipPath id="c87bcd0768"><path d="M 39.542969 168.496094 L 85.78125 141.691406 L 116.984375 195.511719 L 70.746094 222.320312 Z M 39.542969 168.496094 " clip-rule="nonzero"/></clipPath><clipPath id="262d5ac25d"><path d="M 62.664062 155.09375 L 93.578125 155.140625 L 109.175781 182.042969 L 93.855469 208.894531 L 62.9375 208.847656 L 47.34375 181.945312 Z M 62.664062 155.09375 " clip-rule="nonzero"/></clipPath><clipPath id="9878fe6b38"><path d="M 0.320312 0 L 62.191406 0 L 62.191406 54 L 0.320312 54 Z M 0.320312 0 " clip-rule="nonzero"/></clipPath><clipPath id="5b4c08e17c"><path d="M -7.457031 13.496094 L 38.78125 -13.308594 L 69.984375 40.511719 L 23.746094 67.320312 Z M -7.457031 13.496094 " clip-rule="nonzero"/></clipPath><clipPath id="fea2ac82f0"><path d="M 15.664062 0.09375 L 46.578125 0.140625 L 62.175781 27.042969 L 46.855469 53.894531 L 15.9375 53.847656 L 0.34375 26.945312 Z M 15.664062 0.09375 " clip-rule="nonzero"/></clipPath><clipPath id="3eb62ac560"><rect x="0" width="63" y="0" height="54"/></clipPath><clipPath id="cbf1d9d0e1"><path d="M 153 90 L 214 90 L 214 143 L 153 143 Z M 153 90 " clip-rule="nonzero"/></clipPath><clipPath id="d1809596a5"><path d="M 145.535156 103.492188 L 190.707031 77.304688 L 221.191406 129.886719 L 176.019531 156.074219 Z M 145.535156 103.492188 " clip-rule="nonzero"/></clipPath><clipPath id="46ae5b6931"><path d="M 168.121094 90.398438 L 198.324219 90.445312 L 213.5625 116.726562 L 198.59375 142.960938 L 168.390625 142.914062 L 153.152344 116.632812 Z M 168.121094 90.398438 " clip-rule="nonzero"/></clipPath><clipPath id="a451526362"><path d="M 0.078125 0.167969 L 60.75 0.167969 L 60.75 53 L 0.078125 53 Z M 0.078125 0.167969 " clip-rule="nonzero"/></clipPath><clipPath id="c002df4acc"><path d="M -7.464844 13.492188 L 37.707031 -12.695312 L 68.191406 39.886719 L 23.019531 66.074219 Z M -7.464844 13.492188 " clip-rule="nonzero"/></clipPath><clipPath id="f6725f5b41"><path d="M 15.121094 0.398438 L 45.324219 0.445312 L 60.5625 26.726562 L 45.59375 52.960938 L 15.390625 52.914062 L 0.152344 26.632812 Z M 15.121094 0.398438 " clip-rule="nonzero"/></clipPath><clipPath id="5dccc08778"><rect x="0" width="61" y="0" height="53"/></clipPath><clipPath id="0b7fa71078"><path d="M 122 156 L 185 156 L 185 210 L 122 210 Z M 122 156 " clip-rule="nonzero"/></clipPath><clipPath id="8f88c8c05e"><path d="M 114.503906 169.554688 L 160.742188 142.75 L 191.945312 196.574219 L 145.707031 223.378906 Z M 114.503906 169.554688 " clip-rule="nonzero"/></clipPath><clipPath id="51e99ae5e8"><path d="M 137.625 156.152344 L 168.539062 156.203125 L 184.136719 183.101562 L 168.816406 209.957031 L 137.898438 209.90625 L 122.304688 183.007812 Z M 137.625 156.152344 " clip-rule="nonzero"/></clipPath><clipPath id="74ef040ecd"><path d="M 0.144531 0.117188 L 62.253906 0.117188 L 62.253906 54 L 0.144531 54 Z M 0.144531 0.117188 " clip-rule="nonzero"/></clipPath><clipPath id="7cf6b26421"><path d="M -7.496094 13.554688 L 38.742188 -13.25 L 69.945312 40.574219 L 23.707031 67.378906 Z M -7.496094 13.554688 " clip-rule="nonzero"/></clipPath><clipPath id="dae6ae629f"><path d="M 15.625 0.152344 L 46.539062 0.203125 L 62.136719 27.101562 L 46.816406 53.957031 L 15.898438 53.90625 L 0.304688 27.007812 Z M 15.625 0.152344 " clip-rule="nonzero"/></clipPath><clipPath id="cb6b71f82c"><rect x="0" width="63" y="0" height="54"/></clipPath><clipPath id="f631f41b52"><path d="M 100.0625 175.632812 L 153.21875 175.632812 L 153.21875 190.476562 L 100.0625 190.476562 Z M 100.0625 175.632812 " clip-rule="nonzero"/></clipPath><clipPath id="df4bbeff7a"><path d="M 0.0625 0.632812 L 53.21875 0.632812 L 53.21875 15.476562 L 0.0625 15.476562 Z M 0.0625 0.632812 " clip-rule="nonzero"/></clipPath><clipPath id="3c5cd8677e"><rect x="0" width="54" y="0" height="16"/></clipPath><clipPath id="8fb8949b01"><rect x="0" width="646" y="0" height="182"/></clipPath></defs><g clip-path="url(#3c7d11cbf4)"><path fill="#ffffff" d="M 0.558594 0 L 1424.441406 0 L 1424.441406 637 L 0.558594 637 Z M 0.558594 0 " fill-opacity="1" fill-rule="nonzero"/><path fill="#0f1223" d="M 0.558594 0 L 1424.441406 0 L 1424.441406 637 L 0.558594 637 Z M 0.558594 0 " fill-opacity="1" fill-rule="nonzero"/><g transform="matrix(1, 0, 0, 1, 0.000000000000000111, 0)"><g clip-path="url(#d7c6e7d6cb)"><g clip-path="url(#48f2e17776)"><rect x="-313.5" width="2052" fill="#0f1223" height="917.99998" y="-140.249997" fill-opacity="1"/></g></g></g></g><g clip-path="url(#7c38c7c7f4)"><g transform="matrix(1, 0, 0, 1, 9, 21)"><g clip-path="url(#cfff3af654)"><path fill="#11ebd8" d="M 3.664062 134.1875 L 286.292969 134.1875 L 298.363281 155.054688 L 326.308594 155.054688 L 338.378906 134.1875 C 348.785156 134.1875 479.179688 134.1875 489.585938 134.1875 L 505.195312 161.222656 L 489.585938 188.257812 C 479.179688 188.257812 348.785156 188.257812 338.378906 188.257812 L 326.308594 167.390625 L 298.363281 167.390625 L 286.292969 188.257812 L 3.664062 188.257812 C 0.554688 170.394531 0.554688 152.105469 3.664062 134.1875 Z M 3.664062 134.1875 " fill-opacity="1" fill-rule="nonzero"/><g clip-path="url(#2cde4a7a62)"><path fill="#11ebd8" d="M 391.695312 55.339844 L 379.625 34.472656 L 351.679688 34.472656 L 339.609375 55.339844 L 41.640625 55.339844 C 97.640625 -7.796875 160.453125 1.214844 236.195312 1.214844 L 339.609375 1.214844 L 351.679688 22.082031 L 379.625 22.082031 L 391.695312 1.214844 L 422.914062 1.214844 L 438.523438 28.25 L 422.914062 55.285156 L 391.695312 55.285156 Z M 391.695312 55.339844 " fill-opacity="1" fill-rule="nonzero"/></g><path fill="#11ebd8" d="M 205.027344 88.59375 L 232.976562 88.59375 L 245.042969 67.730469 L 276.261719 67.730469 L 291.871094 94.765625 L 276.261719 121.796875 L 245.042969 121.796875 L 232.976562 100.933594 L 205.027344 100.933594 L 192.960938 121.796875 L 6.292969 121.796875 C 11.335938 102.058594 20.078125 83.769531 31.71875 67.675781 L 192.960938 67.675781 Z M 205.027344 88.59375 " fill-opacity="1" fill-rule="nonzero"/><g clip-path="url(#b14a483273)"><path fill="#11ebd8" d="M 578.738281 134.1875 L 594.347656 161.222656 L 578.738281 188.3125 L 547.464844 188.3125 L 531.855469 161.222656 L 547.464844 134.1875 Z M 578.738281 134.1875 " fill-opacity="1" fill-rule="nonzero"/></g><path fill="#11ebd8" d="M 381.019531 94.765625 L 365.410156 121.796875 L 334.140625 121.796875 L 318.53125 94.765625 L 334.140625 67.730469 L 365.410156 67.730469 Z M 381.019531 94.765625 " fill-opacity="1" fill-rule="nonzero"/><path fill="#11ebd8" d="M 472.046875 267.109375 L 487.710938 294.195312 L 472.046875 321.230469 L 440.828125 321.230469 L 425.21875 294.195312 L 440.828125 267.109375 Z M 472.046875 267.109375 " fill-opacity="1" fill-rule="nonzero"/><path fill="#11ebd8" d="M 338.378906 221.515625 L 366.324219 221.515625 L 378.390625 200.648438 L 409.609375 200.648438 L 425.21875 227.683594 L 409.609375 254.71875 L 378.390625 254.71875 L 366.324219 233.851562 L 338.378906 233.851562 L 326.308594 254.71875 L 31.773438 254.71875 C 20.132812 238.625 11.390625 220.335938 6.347656 200.59375 C 104.132812 200.59375 228.578125 200.59375 326.363281 200.59375 Z M 338.378906 221.515625 " fill-opacity="1" fill-rule="nonzero"/><path fill="#11ebd8" d="M 258.347656 288.027344 L 286.292969 288.027344 L 298.363281 267.164062 C 326.523438 267.164062 354.738281 267.164062 382.953125 267.164062 L 398.5625 294.195312 L 382.953125 321.230469 C 354.738281 321.230469 326.578125 321.230469 298.363281 321.230469 L 286.292969 300.363281 L 258.347656 300.363281 L 246.277344 321.230469 C 166.300781 321.230469 99.089844 331.90625 41.640625 267.109375 L 246.277344 267.109375 Z M 258.347656 288.027344 " fill-opacity="1" fill-rule="nonzero"/></g></g></g><g clip-path="url(#76c96508f8)"><path fill="#11ebd8" d="M 774.769531 421.097656 L 492.140625 421.097656 L 480.070312 441.960938 L 452.125 441.960938 L 440.058594 421.097656 C 429.652344 421.097656 299.253906 421.097656 288.847656 421.097656 L 273.238281 448.128906 L 288.847656 475.164062 C 299.253906 475.164062 429.652344 475.164062 440.058594 475.164062 L 452.125 454.300781 L 480.070312 454.300781 L 492.140625 475.164062 L 774.769531 475.164062 C 777.878906 457.304688 777.878906 439.011719 774.769531 421.097656 Z M 774.769531 421.097656 " fill-opacity="1" fill-rule="nonzero"/></g><path fill="#11ebd8" d="M 386.738281 342.246094 L 398.808594 321.378906 L 426.753906 321.378906 L 438.824219 342.246094 L 736.792969 342.246094 C 680.792969 279.113281 617.980469 288.125 542.242188 288.125 L 438.824219 288.125 L 426.753906 308.988281 L 398.808594 308.988281 L 386.738281 288.125 L 355.519531 288.125 L 339.910156 315.15625 L 355.519531 342.191406 L 386.738281 342.191406 Z M 386.738281 342.246094 " fill-opacity="1" fill-rule="nonzero"/><path fill="#11ebd8" d="M 573.40625 375.503906 L 545.460938 375.503906 L 533.390625 354.636719 L 502.171875 354.636719 L 486.5625 381.671875 L 502.171875 408.707031 L 533.390625 408.707031 L 545.460938 387.839844 L 573.40625 387.839844 L 585.472656 408.707031 L 772.140625 408.707031 C 767.097656 388.964844 758.355469 370.675781 746.714844 354.582031 L 585.472656 354.582031 Z M 573.40625 375.503906 " fill-opacity="1" fill-rule="nonzero"/><g clip-path="url(#83d1a0cd41)"><path fill="#11ebd8" d="M 199.695312 421.097656 L 184.089844 448.128906 L 199.695312 475.21875 L 230.96875 475.21875 L 246.578125 448.128906 L 230.96875 421.097656 Z M 199.695312 421.097656 " fill-opacity="1" fill-rule="nonzero"/></g><path fill="#11ebd8" d="M 397.414062 381.671875 L 413.023438 408.707031 L 444.292969 408.707031 L 459.902344 381.671875 L 444.292969 354.636719 L 413.023438 354.636719 Z M 397.414062 381.671875 " fill-opacity="1" fill-rule="nonzero"/><path fill="#11ebd8" d="M 306.386719 554.015625 L 290.722656 581.105469 L 306.386719 608.136719 L 337.605469 608.136719 L 353.214844 581.105469 L 337.605469 554.015625 Z M 306.386719 554.015625 " fill-opacity="1" fill-rule="nonzero"/><path fill="#11ebd8" d="M 440.058594 508.421875 L 412.109375 508.421875 L 400.042969 487.554688 L 368.824219 487.554688 L 353.214844 514.589844 L 368.824219 541.625 L 400.042969 541.625 L 412.109375 520.757812 L 440.058594 520.757812 L 452.125 541.625 L 746.660156 541.625 C 758.300781 525.53125 767.046875 507.242188 772.085938 487.503906 C 674.300781 487.503906 549.859375 487.503906 452.074219 487.503906 Z M 440.058594 508.421875 " fill-opacity="1" fill-rule="nonzero"/><path fill="#11ebd8" d="M 520.085938 574.933594 L 492.140625 574.933594 L 480.074219 554.070312 C 451.910156 554.070312 423.695312 554.070312 395.480469 554.070312 L 379.875 581.105469 L 395.480469 608.136719 C 423.695312 608.136719 451.859375 608.136719 480.070312 608.136719 L 492.140625 587.273438 L 520.085938 587.273438 L 532.15625 608.136719 C 612.132812 608.136719 679.34375 618.8125 736.792969 554.015625 L 532.15625 554.015625 Z M 520.085938 574.933594 " fill-opacity="1" fill-rule="nonzero"/><g clip-path="url(#4818bc8945)"><path fill="#0f1223" d="M 196.792969 80.972656 L 454.523438 77.304688 L 452.691406 147.390625 L 194.960938 148.207031 Z M 196.792969 80.972656 " fill-opacity="1" fill-rule="nonzero"/></g><g clip-path="url(#4f89347e2a)"><g transform="matrix(1, 0, 0, 1, 169, 152)"><g clip-path="url(#3e5c124533)"><g clip-path="url(#c2370636ae)"><path fill="#0f1223" d="M 0.554688 0.894531 L 483.253906 0.894531 L 483.253906 133.621094 L 0.554688 133.621094 Z M 0.554688 0.894531 " fill-opacity="1" fill-rule="nonzero"/></g></g></g></g><g clip-path="url(#d6e1b64013)"><path fill="#0f1223" d="M 86.066406 153.65625 L 324.429688 150.261719 L 322.734375 215.082031 L 84.371094 215.835938 Z M 86.066406 153.65625 " fill-opacity="1" fill-rule="nonzero"/></g><g clip-path="url(#e275e87e1c)"><g clip-path="url(#6f1970c568)"><g clip-path="url(#564f3deead)"><g transform="matrix(1, 0, 0, 1, 139, 221)"><g clip-path="url(#74721cf809)"><g clip-path="url(#edcedd3510)"><g clip-path="url(#a13be0ea7d)"><g clip-path="url(#4ed10acb6d)"><path fill="#11ebd8" d="M -6.851562 13.859375 L 39.53125 -13.03125 L 70.832031 40.960938 L 24.449219 67.847656 Z M -6.851562 13.859375 " fill-opacity="1" fill-rule="nonzero"/></g></g></g></g></g></g></g></g><g transform="matrix(1, 0, 0, 1, 203, 131)"><g clip-path="url(#7ce5cd4908)"><g fill="#11ebd8" fill-opacity="1"><g transform="translate(1.982848, 146.226379)"><g><path d="M 119.6875 -78.53125 C 119.6875 -71.613281 117.816406 -65.351562 114.078125 -59.75 C 110.347656 -54.15625 104.914062 -50.039062 97.78125 -47.40625 L 122.96875 0 L 82.140625 0 L 62.0625 -41.328125 L 48.5625 -41.328125 L 48.5625 0 L 12.1875 0 L 12.1875 -113.265625 L 81.484375 -113.265625 C 89.609375 -113.265625 96.550781 -111.695312 102.3125 -108.5625 C 108.070312 -105.4375 112.40625 -101.210938 115.3125 -95.890625 C 118.226562 -90.566406 119.6875 -84.78125 119.6875 -78.53125 Z M 82.640625 -77.046875 C 82.640625 -80.003906 81.648438 -82.472656 79.671875 -84.453125 C 77.703125 -86.429688 75.289062 -87.421875 72.4375 -87.421875 L 48.5625 -87.421875 L 48.5625 -66.515625 L 72.4375 -66.515625 C 75.289062 -66.515625 77.703125 -67.523438 79.671875 -69.546875 C 81.648438 -71.578125 82.640625 -74.078125 82.640625 -77.046875 Z M 82.640625 -77.046875 "/></g></g></g><g fill="#11ebd8" fill-opacity="1"><g transform="translate(133.330995, 146.226379)"><g><path d="M 12.1875 -113.265625 L 110.140625 -113.265625 L 110.140625 -86.09375 L 48.5625 -86.09375 L 48.5625 -70.453125 L 101.25 -70.453125 L 101.25 -44.453125 L 48.5625 -44.453125 L 48.5625 -27.15625 L 111.28125 -27.15625 L 111.28125 0 L 12.1875 0 Z M 12.1875 -113.265625 "/></g></g></g><g fill="#11ebd8" fill-opacity="1"><g transform="translate(255.461802, 146.226379)"><g><path d="M 59.765625 -115.234375 C 74.242188 -115.234375 86.144531 -112.296875 95.46875 -106.421875 C 104.800781 -100.554688 109.582031 -91.863281 109.8125 -80.34375 L 109.8125 -78.359375 L 75.734375 -78.359375 L 75.734375 -79.015625 C 75.734375 -82.304688 74.523438 -85.050781 72.109375 -87.25 C 69.691406 -89.445312 66.015625 -90.546875 61.078125 -90.546875 C 56.242188 -90.546875 52.535156 -89.832031 49.953125 -88.40625 C 47.378906 -86.976562 46.09375 -85.222656 46.09375 -83.140625 C 46.09375 -80.171875 47.847656 -77.972656 51.359375 -76.546875 C 54.867188 -75.117188 60.519531 -73.640625 68.3125 -72.109375 C 77.425781 -70.242188 84.914062 -68.296875 90.78125 -66.265625 C 96.65625 -64.234375 101.785156 -60.910156 106.171875 -56.296875 C 110.566406 -51.691406 112.820312 -45.4375 112.9375 -37.53125 C 112.9375 -24.144531 108.40625 -14.210938 99.34375 -7.734375 C 90.289062 -1.265625 78.191406 1.96875 63.046875 1.96875 C 45.378906 1.96875 31.632812 -0.988281 21.8125 -6.90625 C 11.988281 -12.832031 7.078125 -23.316406 7.078125 -38.359375 L 41.484375 -38.359375 C 41.484375 -32.648438 42.960938 -28.832031 45.921875 -26.90625 C 48.890625 -24.988281 53.503906 -24.03125 59.765625 -24.03125 C 64.367188 -24.03125 68.179688 -24.523438 71.203125 -25.515625 C 74.222656 -26.503906 75.734375 -28.535156 75.734375 -31.609375 C 75.734375 -34.347656 74.054688 -36.40625 70.703125 -37.78125 C 67.359375 -39.15625 61.898438 -40.609375 54.328125 -42.140625 C 45.109375 -44.117188 37.476562 -46.175781 31.4375 -48.3125 C 25.40625 -50.457031 20.140625 -54 15.640625 -58.9375 C 11.140625 -63.875 8.890625 -70.566406 8.890625 -79.015625 C 8.890625 -91.421875 13.691406 -100.554688 23.296875 -106.421875 C 32.898438 -112.296875 45.054688 -115.234375 59.765625 -115.234375 Z M 59.765625 -115.234375 "/></g></g></g><g fill="#11ebd8" fill-opacity="1"><g transform="translate(377.592609, 146.226379)"><g><path d="M 77.375 -84.28125 L 77.375 0 L 40.984375 0 L 40.984375 -84.28125 L 3.78125 -84.28125 L 3.78125 -113.265625 L 114.421875 -113.265625 L 114.421875 -84.28125 Z M 77.375 -84.28125 "/></g></g></g><g fill="#11ebd8" fill-opacity="1"><g transform="translate(499.723416, 146.226379)"><g><path d="M 13.828125 0 L 13.828125 -113.265625 L 50.203125 -113.265625 L 50.203125 0 Z M 13.828125 0 "/></g></g></g><g fill="#11ebd8" fill-opacity="1"><g transform="translate(567.044047, 146.226379)"><g><path d="M 42.96875 0 L 2.796875 -113.265625 L 41.65625 -113.265625 L 64.375 -37.53125 L 65.03125 -37.53125 L 87.90625 -113.265625 L 125.109375 -113.265625 L 85.109375 0 Z M 42.96875 0 "/></g></g></g><g fill="#11ebd8" fill-opacity="1"><g transform="translate(698.392194, 146.226379)"><g><path d="M 12.1875 -113.265625 L 110.140625 -113.265625 L 110.140625 -86.09375 L 48.5625 -86.09375 L 48.5625 -70.453125 L 101.25 -70.453125 L 101.25 -44.453125 L 48.5625 -44.453125 L 48.5625 -27.15625 L 111.28125 -27.15625 L 111.28125 0 L 12.1875 0 Z M 12.1875 -113.265625 "/></g></g></g></g></g><g clip-path="url(#0612541b59)"><g clip-path="url(#c87bcd0768)"><g clip-path="url(#262d5ac25d)"><g transform="matrix(1, 0, 0, 1, 47, 155)"><g clip-path="url(#3eb62ac560)"><g clip-path="url(#9878fe6b38)"><g clip-path="url(#5b4c08e17c)"><g clip-path="url(#fea2ac82f0)"><path fill="#11ebd8" d="M -7.457031 13.496094 L 38.78125 -13.308594 L 69.984375 40.511719 L 23.746094 67.320312 Z M -7.457031 13.496094 " fill-opacity="1" fill-rule="nonzero"/></g></g></g></g></g></g></g></g><g clip-path="url(#cbf1d9d0e1)"><g clip-path="url(#d1809596a5)"><g clip-path="url(#46ae5b6931)"><g transform="matrix(1, 0, 0, 1, 153, 90)"><g clip-path="url(#5dccc08778)"><g clip-path="url(#a451526362)"><g clip-path="url(#c002df4acc)"><g clip-path="url(#f6725f5b41)"><path fill="#11ebd8" d="M -7.464844 13.492188 L 37.707031 -12.695312 L 68.191406 39.886719 L 23.019531 66.074219 Z M -7.464844 13.492188 " fill-opacity="1" fill-rule="nonzero"/></g></g></g></g></g></g></g></g><g clip-path="url(#0b7fa71078)"><g clip-path="url(#8f88c8c05e)"><g clip-path="url(#51e99ae5e8)"><g transform="matrix(1, 0, 0, 1, 122, 156)"><g clip-path="url(#cb6b71f82c)"><g clip-path="url(#74ef040ecd)"><g clip-path="url(#7cf6b26421)"><g clip-path="url(#dae6ae629f)"><path fill="#11ebd8" d="M -7.496094 13.554688 L 38.742188 -13.25 L 69.945312 40.574219 L 23.707031 67.378906 Z M -7.496094 13.554688 " fill-opacity="1" fill-rule="nonzero"/></g></g></g></g></g></g></g></g><g clip-path="url(#f631f41b52)"><g transform="matrix(1, 0, 0, 1, 100, 175)"><g clip-path="url(#3c5cd8677e)"><g clip-path="url(#df4bbeff7a)"><path fill="#11ebd8" d="M 0.0625 0.632812 L 53.238281 0.632812 L 53.238281 15.476562 L 0.0625 15.476562 Z M 0.0625 0.632812 " fill-opacity="1" fill-rule="nonzero"/></g></g></g></g><g transform="matrix(1, 0, 0, 1, 767, 448)"><g clip-path="url(#8fb8949b01)"><g fill="#11ebd8" fill-opacity="1"><g transform="translate(1.524746, 146.085737)"><g><path d="M 13.828125 0 L 13.828125 -113.265625 L 50.203125 -113.265625 L 50.203125 0 Z M 13.828125 0 "/></g></g></g><g fill="#11ebd8" fill-opacity="1"><g transform="translate(68.845377, 146.085737)"><g><path d="M 69.140625 -115.234375 C 80.003906 -115.234375 89.769531 -113.585938 98.4375 -110.296875 C 107.113281 -107.003906 114.003906 -102.144531 119.109375 -95.71875 C 124.210938 -89.300781 126.765625 -81.484375 126.765625 -72.265625 L 92.03125 -72.265625 C 92.03125 -76.984375 89.941406 -80.796875 85.765625 -83.703125 C 81.597656 -86.617188 76.550781 -88.078125 70.625 -88.078125 C 62.0625 -88.078125 55.582031 -85.796875 51.1875 -81.234375 C 46.800781 -76.679688 44.609375 -70.238281 44.609375 -61.90625 L 44.609375 -51.359375 C 44.609375 -43.015625 46.800781 -36.566406 51.1875 -32.015625 C 55.582031 -27.460938 62.0625 -25.1875 70.625 -25.1875 C 76.550781 -25.1875 81.597656 -26.582031 85.765625 -29.375 C 89.941406 -32.175781 92.03125 -35.773438 92.03125 -40.171875 L 66.34375 -40.171875 L 66.34375 -63.21875 L 126.765625 -63.21875 L 126.765625 0 L 108 0 L 104.375 -11.1875 C 94.050781 -2.414062 80.550781 1.96875 63.875 1.96875 C 45.101562 1.96875 31 -2.941406 21.5625 -12.765625 C 12.125 -22.585938 7.40625 -37.207031 7.40625 -56.625 C 7.40625 -75.832031 12.753906 -90.398438 23.453125 -100.328125 C 34.160156 -110.265625 49.390625 -115.234375 69.140625 -115.234375 Z M 69.140625 -115.234375 "/></g></g></g><g fill="#11ebd8" fill-opacity="1"><g transform="translate(209.246228, 146.085737)"><g><path d="M 13.828125 0 L 13.828125 -113.265625 L 50.203125 -113.265625 L 50.203125 0 Z M 13.828125 0 "/></g></g></g><g fill="#11ebd8" fill-opacity="1"><g transform="translate(276.56686, 146.085737)"><g><path d="M 77.375 -84.28125 L 77.375 0 L 40.984375 0 L 40.984375 -84.28125 L 3.78125 -84.28125 L 3.78125 -113.265625 L 114.421875 -113.265625 L 114.421875 -84.28125 Z M 77.375 -84.28125 "/></g></g></g><g fill="#11ebd8" fill-opacity="1"><g transform="translate(398.697667, 146.085737)"><g><path d="M 88.078125 0 L 83.296875 -15.96875 L 43.625 -15.96875 L 38.84375 0 L 1.640625 0 L 42.96875 -113.265625 L 85.28125 -113.265625 L 126.59375 0 Z M 51.203125 -41.328125 L 75.734375 -41.328125 L 63.875 -81.65625 L 63.21875 -81.65625 Z M 51.203125 -41.328125 "/></g></g></g><g fill="#11ebd8" fill-opacity="1"><g transform="translate(530.045813, 146.085737)"><g><path d="M 12.1875 -113.265625 L 48.5625 -113.265625 L 48.5625 -28.96875 L 106.671875 -28.96875 L 106.671875 0 L 12.1875 0 Z M 12.1875 -113.265625 "/></g></g></g></g></g></svg>